<svg xmlns="http://www.w3.org/2000/svg" viewBox="0 0 208.52 78.9">
  <title>Ресурс 1</title>
  <g id="eecb3436-b978-4186-b0e3-a324b592f29d" data-name="Слой 2">
    <g id="a43adbb0-bda9-4dee-901b-c023a051ef64" data-name="Слой 4">
      <g>
        <path d="M193,60.26l-15.23-7.71A8.09,8.09,0,0,1,175.62,51L163.75,39a20.91,20.91,0,0,0-12.09-6,11.86,11.86,0,0,0-10.6-6.53H103.64a11.85,11.85,0,0,0-10,5.44l-.25.39H79.62L35.15,30.19a3.53,3.53,0,0,1,0,.46,5.26,5.26,0,0,1,.55,2.06l43.86,2H94.09a1.22,1.22,0,0,0,1-.57l.62-1a9.37,9.37,0,0,1,7.89-4.3h37.42a9.36,9.36,0,0,1,8.62,5.69,1.27,1.27,0,0,0,1,.75A18.33,18.33,0,0,1,162,40.71l11.87,12a10.71,10.71,0,0,0,2.79,2l15.24,7.71a3.28,3.28,0,0,1,.82,5.25,3.17,3.17,0,0,1-2.35.94l-90.29-1.26a8.08,8.08,0,0,1-5.38-2.15L81.88,53.43a27.71,27.71,0,0,0-14-7L34.72,40.26a6,6,0,0,1-1,2.35L67.4,48.93a25.24,25.24,0,0,1,12.79,6.33L93,67.09a10.61,10.61,0,0,0,7,2.81l90.3,1.26h.08a5.76,5.76,0,0,0,2.6-10.9Z" fill="#313131"/>
        <path d="M133,65.48H124.4a5.93,5.93,0,0,1-5.92-5.92V38.28a5.92,5.92,0,0,1,5.92-5.91H133a5.92,5.92,0,0,1,5.92,5.91V59.56A5.93,5.93,0,0,1,133,65.48ZM124.4,34.86A3.43,3.43,0,0,0,121,38.28V59.56A3.44,3.44,0,0,0,124.4,63H133a3.44,3.44,0,0,0,3.43-3.43V38.28A3.43,3.43,0,0,0,133,34.86Z" fill="#313131"/>
        <path d="M164.3,55.82l-.42,0-12.13-1.35A8.78,8.78,0,0,1,144,44.76a8,8,0,0,1,8.1-7A7.85,7.85,0,0,1,157.41,40l9.51,9.41A3.81,3.81,0,0,1,168,51.63,3.75,3.75,0,0,1,167,54.71,3.71,3.71,0,0,1,164.3,55.82ZM151.85,40.21A5.44,5.44,0,0,0,146.47,45h0A6.29,6.29,0,0,0,152,52l12.14,1.35a1.25,1.25,0,0,0,1-.36,1.26,1.26,0,0,0,0-1.77l-9.51-9.41A5.42,5.42,0,0,0,152,40.22Zm-6.62,4.68h0Z" fill="#313131"/>
        <path d="M111.72,51.91h-14a1.25,1.25,0,0,1-1.24-1.25V39a1.24,1.24,0,0,1,1.24-1.24h14A1.24,1.24,0,0,1,113,39V50.66A1.25,1.25,0,0,1,111.72,51.91ZM98.94,49.42h11.54V40.21H98.94Z" fill="#313131"/>
        <path d="M161.56,78.9a1.25,1.25,0,0,1-1.24-1.25V69.92a1.25,1.25,0,1,1,2.49,0v7.73A1.25,1.25,0,0,1,161.56,78.9Z" fill="#313131"/>
        <path d="M103.14,78.9a1.24,1.24,0,0,1-1.24-1.25v-9a1.25,1.25,0,1,1,2.49,0v9A1.25,1.25,0,0,1,103.14,78.9Z" fill="#313131"/>
        <path d="M178.84,78.9H90a1.25,1.25,0,1,1,0-2.49h88.89a17.49,17.49,0,0,0,10.6-3.61,1.24,1.24,0,1,1,1.52,2A20,20,0,0,1,178.84,78.9Z" fill="#313131"/>
        <path d="M131.93,27.71a1.23,1.23,0,0,1-1.24-1.24V19.16H116.18v7.31a1.25,1.25,0,0,1-2.49,0V17.92a1.25,1.25,0,0,1,1.25-1.25h17a1.25,1.25,0,0,1,1.25,1.25v8.55A1.24,1.24,0,0,1,131.93,27.71Z" fill="#313131"/>
        <path d="M123.43,19.16a1.25,1.25,0,0,1-1.24-1.24v-10a1.25,1.25,0,0,1,2.49,0V17.92A1.25,1.25,0,0,1,123.43,19.16Z" fill="#313131"/>
        <path d="M129.53,8.47H117.34a1.24,1.24,0,0,1-1.24-1.24v-6A1.25,1.25,0,0,1,117.34,0h12.19a1.25,1.25,0,0,1,1.24,1.24v6A1.24,1.24,0,0,1,129.53,8.47ZM118.59,6h9.69V2.49h-9.69Z" fill="#313131"/>
        <path d="M117.34,5.48H39.59a1.25,1.25,0,0,1,0-2.49h77.75a1.25,1.25,0,1,1,0,2.49Z" fill="#313131"/>
        <path d="M207.28,5.48H129.53a1.25,1.25,0,1,1,0-2.49h77.75a1.25,1.25,0,0,1,0,2.49Z" fill="#313131"/>
        <path d="M128.68,49.83a4.94,4.94,0,1,1,4.94-4.94A4.94,4.94,0,0,1,128.68,49.83Zm0-7.38a2.45,2.45,0,1,0,2.45,2.44A2.45,2.45,0,0,0,128.68,42.45Z" fill="#313131"/>
      </g>
      <g>
        <path d="M42.05,41.86l-7.33-1.48a1,1,0,0,0-.24,0,1.23,1.23,0,0,0-1.12.7,16.27,16.27,0,1,1,1.46-9.38,1.24,1.24,0,0,0,1.24,1.07h4.85a4.44,4.44,0,0,1-1.19-2.49H37.1A18.74,18.74,0,1,0,18.75,52.71,18.59,18.59,0,0,0,35.15,43l6.38,1.28A5,5,0,0,1,42.05,41.86Z" fill="#313131"/>
        <path d="M18.75,46.88A12.91,12.91,0,1,1,31.66,34,12.93,12.93,0,0,1,18.75,46.88Zm0-23.34A10.43,10.43,0,1,0,29.17,34,10.44,10.44,0,0,0,18.75,23.54Z" fill="#313131"/>
        <path d="M18.75,37.82A3.85,3.85,0,1,1,22.6,34,3.85,3.85,0,0,1,18.75,37.82Zm0-5.21A1.36,1.36,0,1,0,20.11,34,1.36,1.36,0,0,0,18.75,32.61Z" fill="#313131"/>
        <path d="M18.75,32.61a1.25,1.25,0,0,1-1.25-1.25V22.3a1.25,1.25,0,0,1,2.49,0v9.06A1.25,1.25,0,0,1,18.75,32.61Z" fill="#313131"/>
        <path d="M20.59,33.37a1.25,1.25,0,0,1-.88-2.13l6.41-6.4a1.24,1.24,0,0,1,1.76,0,1.26,1.26,0,0,1,0,1.76L21.47,33A1.24,1.24,0,0,1,20.59,33.37Z" fill="#313131"/>
        <path d="M30.41,35.21H21.35a1.25,1.25,0,0,1,0-2.49h9.06a1.25,1.25,0,1,1,0,2.49Z" fill="#313131"/>
        <path d="M27,43.46a1.24,1.24,0,0,1-.88-.36l-6.41-6.41a1.24,1.24,0,0,1,1.76-1.76l6.41,6.41A1.24,1.24,0,0,1,27,43.46Z" fill="#313131"/>
        <path d="M18.75,46.88a1.25,1.25,0,0,1-1.25-1.24V36.57a1.25,1.25,0,0,1,2.49,0v9.07A1.25,1.25,0,0,1,18.75,46.88Z" fill="#313131"/>
        <path d="M10.5,43.46a1.24,1.24,0,0,1-.88-2.12L16,34.93a1.24,1.24,0,0,1,1.76,1.76l-6.4,6.41A1.28,1.28,0,0,1,10.5,43.46Z" fill="#313131"/>
        <path d="M16.14,35.21H7.08a1.25,1.25,0,1,1,0-2.49h9.06a1.25,1.25,0,1,1,0,2.49Z" fill="#313131"/>
        <path d="M16.9,33.37A1.28,1.28,0,0,1,16,33L9.62,26.6a1.24,1.24,0,1,1,1.76-1.76l6.4,6.4a1.25,1.25,0,0,1-.88,2.13Z" fill="#313131"/>
      </g>
    </g>
  </g>
</svg>
