<svg xmlns="http://www.w3.org/2000/svg" viewBox="0 0 433.83 255.05">
  <title>Ресурс 1</title>
  <g id="e4a1850e-22e6-4ddc-80cb-b5b6d6e32ec1" data-name="Слой 2">
    <g id="b0bb83a5-26cd-4a4d-bd4b-129feaa35d9d" data-name="OBJECTS">
      <g>
        <polygon points="120.6 75.79 149.06 59.24 117.53 41.04 89.06 57.58 60.79 41.26 178.55 18.86 145.88 0 22.59 22.73 0 35.85 63.43 72.48 34.2 89.46 65.74 107.67 94.97 90.68 113.12 101.16 138.75 86.27 120.6 75.79" fill="#3a3a3a"/>
        <polygon points="63.43 72.48 34.2 89.46 65.74 107.67 94.97 90.68 113.12 101.16 138.75 86.27 120.6 75.79 145.88 61.09 145.88 57.4 117.53 41.04 89.06 57.58 60.79 41.26 145.88 25.08 145.88 0 22.59 22.73 22.59 48.9 63.43 72.48" fill="#232323"/>
        <polygon points="117.53 98.6 138.75 86.27 120.6 75.79 149.06 59.24 117.53 41.04 117.53 98.6" fill="#3a3a3a"/>
        <polygon points="63.43 72.48 60.79 74.01 60.79 104.81 65.74 107.67 89.06 94.11 89.06 57.58 60.79 41.26 60.79 70.95 63.43 72.48" fill="#424242"/>
        <polygon points="63.43 72.48 63.43 106.34 34.2 89.46 63.43 72.48" fill="#3a3a3a"/>
        <polygon points="120.6 75.79 120.6 96.82 138.75 86.27 120.6 75.79" fill="#424242"/>
      </g>
      <g>
        <polygon points="375.88 223.17 404.34 206.62 372.81 188.42 344.34 204.96 316.07 188.64 433.83 166.24 401.16 147.38 277.87 170.11 255.28 183.23 318.71 219.86 289.48 236.84 321.01 255.05 350.24 238.06 368.4 248.54 394.03 233.65 375.88 223.17" fill="#424242"/>
        <polygon points="318.71 219.86 289.48 236.84 321.01 255.05 350.24 238.06 368.4 248.54 394.03 233.65 375.88 223.17 401.16 208.47 401.16 204.78 372.81 188.42 344.34 204.96 316.07 188.64 401.16 172.46 401.16 147.38 277.87 170.11 277.87 196.28 318.71 219.86" fill="#232323"/>
        <polygon points="372.81 245.98 394.03 233.65 375.88 223.17 404.34 206.62 372.81 188.42 372.81 245.98" fill="#424242"/>
        <polygon points="318.71 219.86 316.07 221.39 316.07 252.19 321.01 255.05 344.34 241.49 344.34 204.96 316.07 188.64 316.07 218.33 318.71 219.86" fill="#424242"/>
        <polygon points="318.71 219.86 318.71 253.72 289.48 236.84 318.71 219.86" fill="#3a3a3a"/>
        <polygon points="375.88 223.17 375.88 244.2 394.03 233.65 375.88 223.17" fill="#424242"/>
      </g>
      <g>
        <path d="M287.84,80.64C249.62,58.58,204.31,60.34,161,85.5c-43.48,25.26-46.38,51.51-8.16,73.58,37.84,21.84,83.15,20.07,126.62-5.19C322.77,128.74,325.67,102.49,287.84,80.64Zm-43.12,53.18c-30.38,17.65-50.37,20.62-67.18,10.92-17.19-9.93-11.93-21.41,18.45-39.06S246,85.06,263.16,95C280,104.69,275.08,116.17,244.72,133.82Z" fill="#232323"/>
        <path d="M272.68,157.63V107.46c-.46,7.16-9.48,15.61-28,26.36-30.38,17.65-50.37,20.62-67.18,10.92-5.46-3.16-8.64-6.47-9.49-10.08h0v31.75C200.44,179.23,237,176.28,272.68,157.63Z" fill="#3a3a3a"/>
      </g>
    </g>
  </g>
</svg>
