<svg xmlns="http://www.w3.org/2000/svg" viewBox="0 0 204.27 78.9">
  <title>Ресурс 1</title>
  <g id="f07f4727-ca71-4e61-91ff-c1579112f3f2" data-name="Слой 2">
    <g id="b36e70ea-05ec-45fd-8964-1c846a38f66a" data-name="Слой 4">
      <g>
        <path d="M186.15,71.16h-.09L95.77,69.9a10.61,10.61,0,0,1-7-2.81L75.94,55.26a25.28,25.28,0,0,0-12.79-6.33L11.87,39.31a1.23,1.23,0,0,1-.93-.78L1.77,14.3a1.24,1.24,0,0,1,.14-1.15,1.23,1.23,0,0,1,1-.54H13.51a1.25,1.25,0,0,1,1.12.69l8.2,16.52,52.53,2.42h13.8l.25-.39a11.82,11.82,0,0,1,10-5.44h37.43a11.86,11.86,0,0,1,10.6,6.53,20.86,20.86,0,0,1,12.08,6l11.88,12a8.2,8.2,0,0,0,2.14,1.57l15.24,7.71a5.76,5.76,0,0,1-2.6,10.9ZM13,37l50.57,9.49a27.78,27.78,0,0,1,14,7l12.8,11.83a8.08,8.08,0,0,0,5.38,2.15l90.29,1.26a3.17,3.17,0,0,0,2.34-.94,3.26,3.26,0,0,0-.82-5.25l-15.23-7.71a10.39,10.39,0,0,1-2.79-2l-11.88-12a18.31,18.31,0,0,0-11.27-5.37,1.25,1.25,0,0,1-1-.75,9.36,9.36,0,0,0-8.62-5.69H99.38a9.34,9.34,0,0,0-7.88,4.3l-.62,1a1.23,1.23,0,0,1-1,.57H75.3L22,32.28a1.26,1.26,0,0,1-1.06-.69L12.74,15.1h-8Z" fill="#313131"/>
        <path d="M13.51,25.84H1.24a1.25,1.25,0,0,1,0-2.49H13.51a1.25,1.25,0,1,1,0,2.49Z" fill="#313131"/>
        <path d="M128.72,65.48h-8.58a5.92,5.92,0,0,1-5.91-5.92V38.28a5.92,5.92,0,0,1,5.91-5.91h8.58a5.92,5.92,0,0,1,5.91,5.91V59.56A5.92,5.92,0,0,1,128.72,65.48Zm-8.58-30.62a3.42,3.42,0,0,0-3.42,3.42V59.56A3.43,3.43,0,0,0,120.14,63h8.58a3.43,3.43,0,0,0,3.42-3.43V38.28a3.42,3.42,0,0,0-3.42-3.42Z" fill="#313131"/>
        <path d="M133.39,41.21H116a1.25,1.25,0,0,1,0-2.49h17.37a1.25,1.25,0,0,1,0,2.49Z" fill="#313131"/>
        <path d="M133.39,51H116a1.24,1.24,0,1,1,0-2.48h17.37a1.24,1.24,0,1,1,0,2.48Z" fill="#313131"/>
        <path d="M160.05,55.82l-.42,0L147.5,54.45a8.78,8.78,0,0,1-7.76-9.69,8,8,0,0,1,8.11-7A7.87,7.87,0,0,1,153.16,40l9.51,9.41a3.74,3.74,0,0,1-2.62,6.4ZM147.6,40.21A5.44,5.44,0,0,0,142.22,45h0A6.29,6.29,0,0,0,147.77,52l12.13,1.35a1.27,1.27,0,0,0,1-.36,1.26,1.26,0,0,0,0-1.77l-9.52-9.41a5.38,5.38,0,0,0-3.63-1.56ZM141,44.89h0Z" fill="#313131"/>
        <path d="M107.47,51.91h-14a1.25,1.25,0,0,1-1.25-1.25V39a1.24,1.24,0,0,1,1.25-1.24h14A1.24,1.24,0,0,1,108.72,39V50.66A1.25,1.25,0,0,1,107.47,51.91ZM94.68,49.42h11.55V40.21H94.68Z" fill="#313131"/>
        <path d="M157.31,78.9a1.25,1.25,0,0,1-1.25-1.25V69.92a1.25,1.25,0,1,1,2.49,0v7.73A1.24,1.24,0,0,1,157.31,78.9Z" fill="#313131"/>
        <path d="M98.89,78.9a1.25,1.25,0,0,1-1.25-1.25v-9a1.25,1.25,0,1,1,2.49,0v9A1.24,1.24,0,0,1,98.89,78.9Z" fill="#313131"/>
        <path d="M174.59,78.9H85.69a1.25,1.25,0,0,1,0-2.49h88.9a17.51,17.51,0,0,0,10.6-3.61,1.24,1.24,0,0,1,1.52,2A20,20,0,0,1,174.59,78.9Z" fill="#313131"/>
        <path d="M127.68,27.71a1.24,1.24,0,0,1-1.25-1.24V19.16h-14.5v7.31a1.25,1.25,0,0,1-2.49,0V17.92a1.25,1.25,0,0,1,1.24-1.25h17a1.25,1.25,0,0,1,1.24,1.25v8.55A1.24,1.24,0,0,1,127.68,27.71Z" fill="#313131"/>
        <path d="M119.18,19.16a1.24,1.24,0,0,1-1.24-1.24v-10a1.25,1.25,0,0,1,2.49,0V17.92A1.25,1.25,0,0,1,119.18,19.16Z" fill="#313131"/>
        <path d="M125.27,8.47H113.09a1.24,1.24,0,0,1-1.25-1.24v-6A1.25,1.25,0,0,1,113.09,0h12.18a1.25,1.25,0,0,1,1.25,1.24v6A1.24,1.24,0,0,1,125.27,8.47ZM114.33,6H124V2.49h-9.7Z" fill="#313131"/>
        <path d="M113.09,5.48H35.34a1.25,1.25,0,1,1,0-2.49h77.75a1.25,1.25,0,0,1,0,2.49Z" fill="#313131"/>
        <path d="M203,5.48H125.27a1.25,1.25,0,0,1,0-2.49H203a1.25,1.25,0,1,1,0,2.49Z" fill="#313131"/>
      </g>
    </g>
  </g>
</svg>
