<?xml version="1.0" encoding="iso-8859-1"?>
<!-- Generator: Adobe Illustrator 19.0.0, SVG Export Plug-In . SVG Version: 6.00 Build 0)  -->
<svg version="1.1" id="Capa_1" xmlns="http://www.w3.org/2000/svg" xmlns:xlink="http://www.w3.org/1999/xlink" x="0px" y="0px"
	 viewBox="0 0 512 512" style="enable-background:new 0 0 512 512;" xml:space="preserve">
<g>
	<g>
		<path d="M492,60.163h-98.489V40c0-11.046-8.954-20-20-20c-11.046,0-20,8.954-20,20v20.163H158.489V40c0-11.046-8.954-20-20-20
			s-20,8.954-20,20v20.163H20c-11.046,0-20,8.955-20,20V472c0,11.045,8.954,20,20,20h472c11.046,0,20-8.955,20-20V80.163
			C512,69.118,503.046,60.163,492,60.163z M472,452H40V100.163h78.489v20.164c0,11.046,8.954,20,20,20s20-8.954,20-20v-20.164
			H353.51v20.164c0,11.046,8.954,20,20,20c11.046,0,20-8.954,20-20v-20.164H472V452z"/>
	</g>
</g>
<g>
	<g>
		<circle cx="256" cy="234.95" r="27"/>
	</g>
</g>
<g>
	<g>
		<circle cx="256" cy="352.46" r="27"/>
	</g>
</g>
<g>
	<g>
		<circle cx="138.49" cy="234.95" r="27"/>
	</g>
</g>
<g>
	<g>
		<circle cx="373.51" cy="234.95" r="27"/>
	</g>
</g>
<g>
	<g>
		<circle cx="138.49" cy="352.46" r="27"/>
	</g>
</g>
<g>
	<g>
		<circle cx="373.51" cy="352.46" r="27"/>
	</g>
</g>
<g>
</g>
<g>
</g>
<g>
</g>
<g>
</g>
<g>
</g>
<g>
</g>
<g>
</g>
<g>
</g>
<g>
</g>
<g>
</g>
<g>
</g>
<g>
</g>
<g>
</g>
<g>
</g>
<g>
</g>
</svg>
