<svg xmlns="http://www.w3.org/2000/svg" viewBox="0 0 204.65 86.93">
  <title>Ресурс 1</title>
  <g id="f195d168-4e8a-4490-bae7-9d3bbd528092" data-name="Слой 2">
    <g id="be203c9a-8b73-4123-b34f-bd8db9b64fb8" data-name="Слой 4">
      <g>
        <path d="M128.06,27.71a1.25,1.25,0,0,1-1.25-1.24V19.16h-14.5v7.31a1.25,1.25,0,0,1-2.49,0V17.92a1.25,1.25,0,0,1,1.25-1.25h17a1.24,1.24,0,0,1,1.24,1.25v8.55A1.24,1.24,0,0,1,128.06,27.71Z" fill="#313131"/>
        <path d="M89.58,27.71a1.25,1.25,0,0,1-1.24-1.24V20.14a1.25,1.25,0,0,1,1.24-1.25h21.49a1.25,1.25,0,0,1,0,2.49H90.83v5.09A1.25,1.25,0,0,1,89.58,27.71Z" fill="#313131"/>
        <path d="M119.56,19.16a1.25,1.25,0,0,1-1.24-1.24v-10a1.25,1.25,0,0,1,2.49,0V17.92A1.25,1.25,0,0,1,119.56,19.16Z" fill="#313131"/>
        <path d="M125.66,8.47H113.47a1.23,1.23,0,0,1-1.24-1.24v-6A1.24,1.24,0,0,1,113.47,0h12.19a1.25,1.25,0,0,1,1.24,1.24v6A1.24,1.24,0,0,1,125.66,8.47ZM114.72,6h9.69V2.49h-9.69Z" fill="#313131"/>
        <path d="M113.47,5.48H35.72a1.25,1.25,0,1,1,0-2.49h77.75a1.25,1.25,0,1,1,0,2.49Z" fill="#313131"/>
        <path d="M203.41,5.48H125.66a1.25,1.25,0,1,1,0-2.49h77.75a1.25,1.25,0,0,1,0,2.49Z" fill="#313131"/>
        <path d="M112.61,54.2a4.94,4.94,0,1,1,4.94-4.94A5,5,0,0,1,112.61,54.2Zm0-7.39a2.45,2.45,0,1,0,2.45,2.45A2.45,2.45,0,0,0,112.61,46.81Z" fill="#313131"/>
        <path d="M97.29,54.2a4.94,4.94,0,1,1,4.94-4.94A5,5,0,0,1,97.29,54.2Zm0-7.39a2.45,2.45,0,1,0,2.45,2.45A2.45,2.45,0,0,0,97.29,46.81Z" fill="#313131"/>
        <path d="M134.34,71.61H128a7.32,7.32,0,0,1-7.32-7.31V44.85A7.32,7.32,0,0,1,128,37.53h6.34a7.32,7.32,0,0,1,7.31,7.32V64.3A7.32,7.32,0,0,1,134.34,71.61ZM128,40a4.84,4.84,0,0,0-4.83,4.83V64.3A4.83,4.83,0,0,0,128,69.12h6.34a4.82,4.82,0,0,0,4.82-4.82V44.85A4.83,4.83,0,0,0,134.34,40Z" fill="#313131"/>
        <path d="M131.17,54.2a4.94,4.94,0,1,1,4.93-4.94A5,5,0,0,1,131.17,54.2Zm0-7.39a2.45,2.45,0,1,0,2.44,2.45A2.45,2.45,0,0,0,131.17,46.81Z" fill="#313131"/>
        <path d="M165.6,59.8h-.07L145,58.74a1.25,1.25,0,0,1-1.18-1.25V42.69a1.25,1.25,0,0,1,1.25-1.25H148a1.26,1.26,0,0,1,.83.32l17.61,15.88a1.24,1.24,0,0,1-.83,2.16Zm-19.25-3.49,15.81.82-14.65-13.2h-1.16Z" fill="#313131"/>
        <path d="M179.81,78.75h-.07l-61.8-.39a14.84,14.84,0,0,1-9.36-3.44L89.83,59.22a4.41,4.41,0,0,0-1.94-.92L35.15,47.67a18.74,18.74,0,1,1-16.4-27.79A18.81,18.81,0,0,1,37.1,34.93H80.8a8.23,8.23,0,0,0,4.83-1.56,10.71,10.71,0,0,1,6.28-2h9.53a7.39,7.39,0,0,1,7.27-6.14h25.57a7.4,7.4,0,0,1,7.28,6.19,11.68,11.68,0,0,1,6.67,2.94L173.41,57l8.11,1.37a10.29,10.29,0,0,1-1.71,20.43ZM34.48,45l.24,0L88.39,55.85a6.9,6.9,0,0,1,3,1.46L110.18,73A12.25,12.25,0,0,0,118,75.87l61.8.39a7.79,7.79,0,0,0,1.34-15.48l-8.46-1.43a1.32,1.32,0,0,1-.63-.3L146.57,36.2a9.19,9.19,0,0,0-6.16-2.36,1.25,1.25,0,0,1-1.25-1.25,4.9,4.9,0,0,0-4.88-4.89H108.71a4.9,4.9,0,0,0-4.88,4.89,1.25,1.25,0,0,1-1.25,1.25H91.91a8.18,8.18,0,0,0-4.83,1.55,10.65,10.65,0,0,1-6.28,2H36.06a1.25,1.25,0,0,1-1.24-1.07,16.25,16.25,0,1,0-1.46,9.37A1.23,1.23,0,0,1,34.48,45Z" fill="#313131"/>
        <path d="M18.75,51.54A12.91,12.91,0,1,1,31.66,38.63,12.93,12.93,0,0,1,18.75,51.54Zm0-23.33A10.42,10.42,0,1,0,29.17,38.63,10.43,10.43,0,0,0,18.75,28.21Z" fill="#313131"/>
        <path d="M18.75,42.48a3.85,3.85,0,1,1,3.85-3.85A3.85,3.85,0,0,1,18.75,42.48Zm0-5.21a1.36,1.36,0,1,0,1.36,1.36A1.36,1.36,0,0,0,18.75,37.27Z" fill="#313131"/>
        <path d="M18.75,37.27A1.25,1.25,0,0,1,17.5,36V27A1.25,1.25,0,0,1,20,27V36A1.25,1.25,0,0,1,18.75,37.27Z" fill="#313131"/>
        <path d="M20.59,38a1.24,1.24,0,0,1-.88-2.12l6.41-6.41a1.24,1.24,0,0,1,1.76,0,1.26,1.26,0,0,1,0,1.76l-6.41,6.41A1.24,1.24,0,0,1,20.59,38Z" fill="#313131"/>
        <path d="M30.41,39.87H21.35a1.25,1.25,0,0,1,0-2.49h9.06a1.25,1.25,0,1,1,0,2.49Z" fill="#313131"/>
        <path d="M27,48.13a1.25,1.25,0,0,1-.88-.37l-6.41-6.41a1.24,1.24,0,0,1,0-1.76,1.26,1.26,0,0,1,1.76,0L27.88,46a1.26,1.26,0,0,1,0,1.76A1.27,1.27,0,0,1,27,48.13Z" fill="#313131"/>
        <path d="M18.75,51.54A1.24,1.24,0,0,1,17.5,50.3V41.24a1.25,1.25,0,1,1,2.49,0V50.3A1.24,1.24,0,0,1,18.75,51.54Z" fill="#313131"/>
        <path d="M10.5,48.13a1.25,1.25,0,0,1-.88-.37,1.24,1.24,0,0,1,0-1.76L16,39.59a1.26,1.26,0,0,1,1.76,0,1.24,1.24,0,0,1,0,1.76l-6.4,6.41A1.29,1.29,0,0,1,10.5,48.13Z" fill="#313131"/>
        <path d="M16.14,39.87H7.08a1.25,1.25,0,1,1,0-2.49h9.06a1.25,1.25,0,1,1,0,2.49Z" fill="#313131"/>
        <path d="M16.9,38a1.28,1.28,0,0,1-.88-.36l-6.4-6.41a1.24,1.24,0,0,1,1.76-1.76l6.4,6.41A1.24,1.24,0,0,1,16.9,38Z" fill="#313131"/>
        <path d="M170.73,86.93a1.24,1.24,0,0,1-1.24-1.24V77.5a1.25,1.25,0,0,1,2.49,0v8.19A1.25,1.25,0,0,1,170.73,86.93Z" fill="#313131"/>
        <path d="M118,86.93a1.25,1.25,0,0,1-1.25-1.24V77.11a1.25,1.25,0,0,1,2.49,0v8.58A1.24,1.24,0,0,1,118,86.93Z" fill="#313131"/>
        <path d="M181.56,86.93H100.29a1.25,1.25,0,0,1,0-2.49h81.27a21,21,0,0,0,12.44-4,1.25,1.25,0,0,1,1.74.28,1.23,1.23,0,0,1-.27,1.73A23.51,23.51,0,0,1,181.56,86.93Z" fill="#313131"/>
        <path d="M84.06,36.83a1.25,1.25,0,0,1-1.24-1.24V27a1.25,1.25,0,0,1,1.24-1.24H97.29A1.25,1.25,0,0,1,98.54,27v5.63a1.25,1.25,0,1,1-2.49,0V28.21H85.31v7.38A1.25,1.25,0,0,1,84.06,36.83Z" fill="#313131"/>
      </g>
    </g>
  </g>
</svg>
