<svg height="682pt" viewBox="-21 -102 682.66669 682" width="682pt" xmlns="http://www.w3.org/2000/svg"><path d="m640 398.457031v-87.578125l-76.1875-110.214844c-24.640625-35.65625-61.789062-56.105468-101.914062-56.105468h-39.796876v-75.578125h-43.804687v-36.660157h159.042969v-37.488281h-355.550782v37.488281h159.015626v36.660157h-43.773438v75.578125h-182.296875l-27.074219-67.699219h-87.660156v178.980469h90.941406l202.527344 39.617187v14.410157c0 48.847656 39.738281 88.589843 88.585938 88.589843h2.554687v35.972657h-56.8125v37.484374h311.96875v-37.484374h-76.164063v-35.972657zm-107.023438-176.480469 40.84375 59.085938h-108.140624l-44.757813-99.011719h40.972656c27.636719 0 53.542969 14.550781 71.082031 39.925781zm-198.460937-115.511718h50.09375v38.09375h-50.09375zm-210.183594 75.585937h38.714844v49.703125l-38.714844-7.578125zm-86.847656-67.707031h24.796875l24.5625 61.421875v42.589844h-49.359375zm293.46875 195.527344v-45.273438l-130.421875-25.511718v-57.035157h179.253906l61.703125 136.5h158.242188l2.785156 4.023438v38.398437h-220.460937c-28.179688 0-51.101563-22.925781-51.101563-51.101562zm195.164063 124.558594h-104.015626v-35.972657h104.015626zm0 0"/></svg>