<svg xmlns="http://www.w3.org/2000/svg" viewBox="0 0 136 136" style="width:24px;height:24px;"><path d="M18,6A12,12,0,1,1,6,18,12,12,0,0,1,18,6m0-6A18,18,0,1,0,36,18,18,18,0,0,0,18,0Z"/><path d="M68,6A12,12,0,1,1,56,18,12,12,0,0,1,68,6m0-6A18,18,0,1,0,86,18,18,18,0,0,0,68,0Z"/><path d="M118,6a12,12,0,1,1-12,12A12,12,0,0,1,118,6m0-6a18,18,0,1,0,18,18A18,18,0,0,0,118,0Z"/><path d="M18,56A12,12,0,1,1,6,68,12,12,0,0,1,18,56m0-6A18,18,0,1,0,36,68,18,18,0,0,0,18,50Z"/><path d="M68,56A12,12,0,1,1,56,68,12,12,0,0,1,68,56m0-6A18,18,0,1,0,86,68,18,18,0,0,0,68,50Z"/><path d="M118,56a12,12,0,1,1-12,12,12,12,0,0,1,12-12m0-6a18,18,0,1,0,18,18,18,18,0,0,0-18-18Z"/><path d="M18,106A12,12,0,1,1,6,118a12,12,0,0,1,12-12m0-6a18,18,0,1,0,18,18,18,18,0,0,0-18-18Z"/><path d="M68,106a12,12,0,1,1-12,12,12,12,0,0,1,12-12m0-6a18,18,0,1,0,18,18,18,18,0,0,0-18-18Z"/><path d="M118,106a12,12,0,1,1-12,12,12,12,0,0,1,12-12m0-6a18,18,0,1,0,18,18,18,18,0,0,0-18-18Z"/></svg>
