<svg xmlns="http://www.w3.org/2000/svg" viewBox="0 0 184.82 82.54">
  <title>Ресурс 1</title>
  <g id="a42730f1-c30d-41b9-826f-ff37c18b0c67" data-name="Слой 2">
    <g id="aa541e0b-4386-4059-ad13-7b79e839a2c8" data-name="Слой 4">
      <g>
        <path d="M120.93,71.47h-28c-9.51,0-16-5.22-16.51-13.29L75.47,42.1a1.24,1.24,0,0,1,1.17-1.31A1.26,1.26,0,0,1,78,42L78.88,58c.52,8.07,7.59,11,14,11h28c10.86,0,18.65-3.43,23.16-10.2a16.29,16.29,0,0,0,2.75-9.07,26.24,26.24,0,0,0-5.7-16.28L141,33.3a27.41,27.41,0,0,0-12.8-8.95,33.25,33.25,0,0,0-11-1.72l-38.82.48a14.93,14.93,0,0,0-9.68,3.71A1.24,1.24,0,0,1,67,25a17.44,17.44,0,0,1,11.29-4.33l38.82-.48A36.78,36.78,0,0,1,129,22a29.89,29.89,0,0,1,14,9.76l.11.13a28.74,28.74,0,0,1,6.24,17.83,18.8,18.8,0,0,1-3.17,10.45C141.16,67.66,132.67,71.47,120.93,71.47Z" fill="#313131"/>
        <path d="M98.85,22.85a1.24,1.24,0,0,1-1.25-1.24V20.27a5.59,5.59,0,0,1,5.59-5.58h4.22a6.75,6.75,0,0,1,6.74,6.75,1.25,1.25,0,0,1-2.49,0,4.26,4.26,0,0,0-4.25-4.26h-4.22a3.1,3.1,0,0,0-3.1,3.09v1.34A1.24,1.24,0,0,1,98.85,22.85Z" fill="#313131"/>
        <path d="M102.77,17.18a1.24,1.24,0,0,1-1.24-1.25V6.49a1.25,1.25,0,1,1,2.49,0v9.44A1.25,1.25,0,0,1,102.77,17.18Z" fill="#313131"/>
        <path d="M107.05,17.18a1.25,1.25,0,0,1-1.25-1.25V6.49a1.25,1.25,0,1,1,2.49,0v9.44A1.25,1.25,0,0,1,107.05,17.18Z" fill="#313131"/>
        <path d="M109,7.73h-8.14a1.25,1.25,0,0,1-1.25-1.24V1.24A1.25,1.25,0,0,1,100.84,0H109a1.24,1.24,0,0,1,1.24,1.24V6.49A1.24,1.24,0,0,1,109,7.73Zm-6.9-2.49h5.65V2.49h-5.65Z" fill="#313131"/>
        <path d="M99.57,5.11H26.24a1.25,1.25,0,0,1,0-2.49H99.57a1.25,1.25,0,0,1,0,2.49Z" fill="#313131"/>
        <path d="M183.57,5.11H109.45a1.25,1.25,0,0,1,0-2.49h74.12a1.25,1.25,0,1,1,0,2.49Z" fill="#313131"/>
        <path d="M97.67,67.88c-9.33,0-15.59-5.38-15.59-13.39v-13a15.59,15.59,0,1,1,31.18,0v13C113.26,62.5,107,67.88,97.67,67.88Zm0-39.46a13.11,13.11,0,0,0-13.1,13.1v13c0,8,7.05,10.9,13.1,10.9s13.1-2.85,13.1-10.9v-13A13.12,13.12,0,0,0,97.67,28.42Z" fill="#313131"/>
        <path d="M97.6,49.25a9.18,9.18,0,1,1,9.17-9.18A9.19,9.19,0,0,1,97.6,49.25Zm0-15.86a6.69,6.69,0,1,0,6.68,6.68A6.69,6.69,0,0,0,97.6,33.39Z" fill="#313131"/>
        <path d="M132.77,55.53l-.7,0-.76,0a22.84,22.84,0,0,1-13.42-5.14,4.81,4.81,0,0,1-1.76-3.7V28.41a3.74,3.74,0,0,1,1.29-2.81,4,4,0,0,1,3-1c10.49,0,21.46,9,24.49,20.06A6.68,6.68,0,0,1,143,51.57,15.19,15.19,0,0,1,132.77,55.53ZM120,27.11a1.47,1.47,0,0,0-1,.36,1.25,1.25,0,0,0-.44.94V46.64a2.33,2.33,0,0,0,.86,1.78A20.25,20.25,0,0,0,131.42,53l.77,0a12.8,12.8,0,0,0,9.15-3.29,4.2,4.2,0,0,0,1.22-4.34c-2.77-10.09-12.71-18.27-22.17-18.27H120Z" fill="#313131"/>
        <path d="M95.41,82.54a1.24,1.24,0,0,1-1.24-1.25V70.22a1.25,1.25,0,0,1,2.49,0V81.29A1.25,1.25,0,0,1,95.41,82.54Z" fill="#313131"/>
        <path d="M123.46,82.54a1.24,1.24,0,0,1-1.24-1.25V70.22a1.25,1.25,0,0,1,2.49,0V81.29A1.25,1.25,0,0,1,123.46,82.54Z" fill="#313131"/>
        <path d="M131.83,82.54H79.18a1.25,1.25,0,0,1,0-2.49h52.65c7,0,10.3-1.76,12.49-6.72a1.25,1.25,0,0,1,2.28,1C143.59,81.14,138.52,82.54,131.83,82.54Z" fill="#313131"/>
        <path d="M69.37,26.12H29.66a1.25,1.25,0,1,1,0-2.49H69.37a1.25,1.25,0,1,1,0,2.49Z" fill="#313131"/>
        <path d="M15.14,28.26A1.24,1.24,0,0,1,14,27.5L10,18a1.27,1.27,0,0,1,.1-1.15,1.25,1.25,0,0,1,1-.57L18.89,16a1.21,1.21,0,0,1,1.09.57l4.41,6.83a1.25,1.25,0,1,1-2.09,1.36l-4-6.25L13,18.68l3.29,7.86a1.25,1.25,0,0,1-.67,1.63A1.36,1.36,0,0,1,15.14,28.26Z" fill="#313131"/>
        <path d="M16.1,45.2H11.44a1.24,1.24,0,0,1-1.19-1.62l3.53-11.14a1.25,1.25,0,0,1,2.38.75l-3,9.52h2.3L22,33.11a1.22,1.22,0,0,1,1.22-.53L76.9,40.8a1.24,1.24,0,1,1-.38,2.46l-52.89-8.1-6.51,9.5A1.25,1.25,0,0,1,16.1,45.2Z" fill="#313131"/>
        <path d="M2.38,39.57a1.24,1.24,0,0,1-1.11-.68L.14,36.69A1.24,1.24,0,0,1,.63,35L14,27.35a1.25,1.25,0,1,1,1.24,2.16L2.89,36.61l.06.11L16,31a1.24,1.24,0,1,1,1,2.28L2.87,39.47A1.23,1.23,0,0,1,2.38,39.57Z" fill="#313131"/>
        <path d="M22.44,30.35A1.24,1.24,0,0,1,21.81,28l12.33-7.27-.06-.11-13,5.88a1.25,1.25,0,0,1-1-2.27L34.14,17.9a1.25,1.25,0,0,1,1.62.57l1.13,2.21a1.23,1.23,0,0,1-.48,1.63L23.08,30.18A1.23,1.23,0,0,1,22.44,30.35Z" fill="#313131"/>
        <path d="M18.6,33.77A5.08,5.08,0,0,1,14.07,31h0a5.11,5.11,0,1,1,4.53,2.76Zm-2.32-3.9a2.59,2.59,0,1,0,1.13-3.49,2.59,2.59,0,0,0-1.13,3.49Z" fill="#313131"/>
      </g>
    </g>
  </g>
</svg>
