<svg xmlns="http://www.w3.org/2000/svg" viewBox="0 0 184.82 82.54">
  <title>Ресурс 1</title>
  <g id="ff5bb13a-0223-43f7-a9dd-5d38e26e1a00" data-name="Слой 2">
    <g id="ed87741f-7389-4d8a-ae7d-5bba800f0490" data-name="Слой 4">
      <g>
        <path d="M126.1,71.47h-33c-9.51,0-16-5.22-16.51-13.29L75.64,42.1A1.25,1.25,0,0,1,78.13,42L79.05,58c.53,8.07,7.59,11,14,11h33c10.86,0,18.65-3.43,23.16-10.2A16.29,16.29,0,0,0,152,49.71a26.18,26.18,0,0,0-5.7-16.28l-.1-.13c-3.32-4.17-11-7.24-16.06-8.92-3.57-1.19-4.05-1.81-7.79-1.75l-43.83.48a14.89,14.89,0,0,0-9.67,3.71A1.25,1.25,0,1,1,67.21,25,17.44,17.44,0,0,1,78.5,20.62l43.82-.48c4.05,0,4.25.35,8.08,1.63,5.52,1.83,14.13,5.43,17.75,10l.11.13a28.74,28.74,0,0,1,6.24,17.83,18.87,18.87,0,0,1-3.16,10.45C146.33,67.66,137.84,71.47,126.1,71.47Z" fill="#313131"/>
        <path d="M98.85,22.85a1.24,1.24,0,0,1-1.25-1.24V20.27a5.59,5.59,0,0,1,5.59-5.58h4.22a6.75,6.75,0,0,1,6.74,6.75,1.25,1.25,0,0,1-2.49,0,4.26,4.26,0,0,0-4.25-4.26h-4.22a3.1,3.1,0,0,0-3.1,3.09v1.34A1.24,1.24,0,0,1,98.85,22.85Z" fill="#313131"/>
        <path d="M102.77,17.18a1.24,1.24,0,0,1-1.24-1.25V6.49a1.25,1.25,0,1,1,2.49,0v9.44A1.25,1.25,0,0,1,102.77,17.18Z" fill="#313131"/>
        <path d="M107.05,17.18a1.25,1.25,0,0,1-1.25-1.25V6.49a1.25,1.25,0,1,1,2.49,0v9.44A1.25,1.25,0,0,1,107.05,17.18Z" fill="#313131"/>
        <path d="M109,7.73h-8.14a1.25,1.25,0,0,1-1.25-1.24V1.24A1.25,1.25,0,0,1,100.84,0H109a1.24,1.24,0,0,1,1.24,1.24V6.49A1.24,1.24,0,0,1,109,7.73Zm-6.9-2.49h5.65V2.49h-5.65Z" fill="#313131"/>
        <path d="M99.57,5.11H26.24a1.25,1.25,0,0,1,0-2.49H99.57a1.25,1.25,0,0,1,0,2.49Z" fill="#313131"/>
        <path d="M183.57,5.11H109.45a1.25,1.25,0,0,1,0-2.49h74.12a1.25,1.25,0,1,1,0,2.49Z" fill="#313131"/>
        <path d="M97.67,67.88c-9.33,0-15.59-5.38-15.59-13.39v-13a15.59,15.59,0,1,1,31.18,0v13C113.26,62.5,107,67.88,97.67,67.88Zm0-39.46a13.11,13.11,0,0,0-13.1,13.1v13c0,8,7.05,10.9,13.1,10.9s13.1-2.85,13.1-10.9v-13A13.12,13.12,0,0,0,97.67,28.42Z" fill="#313131"/>
        <path d="M95.41,82.54a1.24,1.24,0,0,1-1.24-1.25V70.22a1.25,1.25,0,0,1,2.49,0V81.29A1.25,1.25,0,0,1,95.41,82.54Z" fill="#313131"/>
        <path d="M123.46,82.54a1.24,1.24,0,0,1-1.24-1.25V70.22a1.25,1.25,0,0,1,2.49,0V81.29A1.25,1.25,0,0,1,123.46,82.54Z" fill="#313131"/>
        <path d="M131.83,82.54H79.18a1.25,1.25,0,0,1,0-2.49h52.65c7,0,10.3-1.76,12.49-6.72a1.25,1.25,0,0,1,2.28,1C143.59,81.14,138.52,82.54,131.83,82.54Z" fill="#313131"/>
        <path d="M69.37,26.12H29.66a1.25,1.25,0,1,1,0-2.49H69.37a1.25,1.25,0,1,1,0,2.49Z" fill="#313131"/>
        <path d="M15.14,28.26A1.24,1.24,0,0,1,14,27.5L10,18a1.27,1.27,0,0,1,.1-1.15,1.25,1.25,0,0,1,1-.57L18.89,16a1.21,1.21,0,0,1,1.09.57l4.41,6.83a1.25,1.25,0,1,1-2.09,1.36l-4-6.25L13,18.68l3.29,7.86a1.25,1.25,0,0,1-.67,1.63A1.36,1.36,0,0,1,15.14,28.26Z" fill="#313131"/>
        <path d="M16.1,45.2H11.44a1.24,1.24,0,0,1-1.19-1.62l3.53-11.14a1.25,1.25,0,0,1,2.38.75l-3,9.52h2.3L22,33.11a1.22,1.22,0,0,1,1.22-.53L76.9,40.8a1.24,1.24,0,1,1-.38,2.46l-52.89-8.1-6.51,9.5A1.25,1.25,0,0,1,16.1,45.2Z" fill="#313131"/>
        <path d="M2.38,39.57a1.24,1.24,0,0,1-1.11-.68L.14,36.69A1.24,1.24,0,0,1,.63,35L14,27.35a1.25,1.25,0,1,1,1.24,2.16L2.89,36.61l.06.11L16,31a1.24,1.24,0,1,1,1,2.28L2.87,39.47A1.23,1.23,0,0,1,2.38,39.57Z" fill="#313131"/>
        <path d="M22.44,30.35A1.24,1.24,0,0,1,21.81,28l12.33-7.27-.06-.11-13,5.88a1.25,1.25,0,0,1-1-2.27L34.14,17.9a1.25,1.25,0,0,1,1.62.57l1.13,2.21a1.23,1.23,0,0,1-.48,1.63L23.08,30.18A1.23,1.23,0,0,1,22.44,30.35Z" fill="#313131"/>
        <path d="M18.6,33.77A5.08,5.08,0,0,1,14.07,31h0a5.11,5.11,0,1,1,4.53,2.76Zm-2.32-3.9a2.59,2.59,0,1,0,1.13-3.49,2.59,2.59,0,0,0-1.13,3.49Z" fill="#313131"/>
      </g>
      <rect x="83.79" y="37.57" width="27.35" height="2.58" fill="#313131"/>
      <rect x="83.99" y="45.2" width="27.35" height="2.58" fill="#313131"/>
      <rect x="83.99" y="50.03" width="27.35" height="2.58" fill="#313131"/>
      <path d="M122.22,31.07h11.45a6.73,6.73,0,0,1,6.73,6.73v7.6A5.42,5.42,0,0,1,135,50.82H122.22a0,0,0,0,1,0,0V31.07a0,0,0,0,1,0,0Z" fill="none" stroke="#313131" stroke-miterlimit="10" stroke-width="2.49"/>
    </g>
  </g>
</svg>
