<svg xmlns="http://www.w3.org/2000/svg" class="service-prices__svg-map" id="svg-map" x="0" y="0" version="1.1" viewBox="0 0 1020 766" xml:space="preserve">
  <style type="text/css">
    .st0{fill-rule:evenodd;clip-rule:evenodd;fill:#bdbdbd;stroke:#adadad;stroke-width:.216}
  </style>
  <path id="svg_x5F_region_x5F_25" class="disabled" d="M890 285s5-8 0-9c0 0-2-4 0-17 0 0 5-3 2-8-3-6 4-7 2-10 0 0-4-3-2-8 2-1 0-5 3-9 0 0-3-3-1-8l4-1s5 2 5-7c0 0-3-7 3-7 5-1 3 5 8 7 0 0 6 3 9 1 0 0 6-3 10 5 0 0 9 1 9 3 0 0 6 8 11 0 0 0 4-13 8 2 0 0 3 8 11 5 0 0 2-3 7 0 0 0 5-1 5 6 0 0 1 7 9 6 0 0 2 7 10 0 0 0 1-6 9-5 0 0 7 1 0 7 0 0-8 3 2 14 0 0 11 10-4 25-1 13-8 7-10 10 0 0-8 2-1 10 0 0-1 6 9 4l5 2c5-7 8 0 3 4 0 0 2 3-7 1 0 0-4-4-9 4l-2 14s-2 7 6 6c0 0 7-3 7 10 0 0 6 9 3 12 0 0-6 2 2 3 0 0 9-4 0 11 0 1-3 9-3 25 0 12 1 10-7 11 0 0-12-1-26 1l-11 1v-6s2-8-8-9c0 0-6 3-8-3 0 0 5-4-12-7 0 0 2-8-11-20 0 0 1-5-7-5 0-8-5-5-5-12 0 0-3-2-1-11 4-2-2-4-1-7 0 0 6-1-3-9 0 0 1-7-6-6 0 0-11 0-5-5 5-2-1-3 0-8 0 0 2-10-5-6 0 0-5 0-4-2 0 0 2-4-3-5z" class="st0"/>
  <path id="svg_x5F_region_x5F_24" class="disabled" d="M830 349c7 2 3 4 3 4-3 3 2 5 2 1 3-3 6-1 6-1 1 2-5 5-3 11-2 13 2 13 2 13 4 1 5 7 5 7 1 5-2 6-2 6-4 1 0 8 0 8 3 9-6 6-6 6-7-9-10-3-10-3-4 6 0 10 0 10 5 4 0 6 0 6-7 1 0 8 0 8 1 5 3 4 3 4a263 263 0 009 16c5-2 7 3 7 3 2 3 4-3 7 3 4 0 8 5 8 5 8 0 6 5 6 5-9 3-3 5-3 5s4 1-3 3c-3 0 1 6-5 4-10 1-5 6-5 6 2 4-3 6-3 6 10 3 10 11 10 11 9 0 7 5 7 5 1 4-2 4-2 4-8 2-1 9-1 9l3-3s8-8 14 0c0 0 3-10 13-20 14 1 19-6 33-4l5-2c0-7-4-10 0-14 3-1 5-7 0-6-5 0-1-8-1-8 2-4-2-17 5-23 5-5 7-2 13-4 6-3 1-6 6-6 5 1 3-7 3-7-1-14 9-11 9-11h4v-6s2-8-8-9c0 0-6 3-8-3 0 0 5-4-12-7 0 0 2-8-10-21 0 0 0-4-8-4 0-8-5-6-4-12 0 0-4-2-2-11 4-2-2-5-1-7 0 0 6-1-3-9 0 0 1-7-6-6 0 0-11 0-4-5 4-2-2-3-1-8 0 0 2-10-5-6 0 0-5 0-4-3 0 0 1-3-3-4-4 3-11 1-11 1-5-4-8 3-8 3-1 3 5-1 5 3s-7 7-7 7c-9 8-9 12-9 12 3 6-2 8-2 8-7 3-4 9-4 9-3-4-6-1-6-1-5 3-3 6-3 6-4 0-7-3-7-3-1 0-2 5-4 3-7-3-6 4-6 4-1 5 3 3 2 12z" class="st0"/>
  <path id="svg_x5F_region_x5F_23" d="M516 552s-4 0-2-9c0 0 1-7-4-12 0 0-5-2-3-5 0 0-3-4 7-5 0 0 13-1 6-13 0-4-9-4-9-7-1-1 8-9-4-7 0 0-10 1-11-6 0 0-2-7-1-12 0 0 4-5-2-13 0-7-4-3-13-4 0 0-12 4-10-9 0 0 0-9-5-9 0 0 1-12-3-15 0 0-6-8 0-13 0 0 5 1 2-4 5-6 15-2 15-2 2 4 4-1 7 0 12-4 11 5 16-2 10-8 14 2 14 2 1 7 10 5 10 5 10-2 8 5 8 5 6-8 9-4 9-4 10 1 4 7 4 7-6 2 3 8 3 8 5 2 5 9 5 9-4 8 4 5 4 5 5-5 8 2 8 2 2 8 7-2 7-2 3-8 12 0 12 0 18 3 14-9 14-9 0-14 8-10 8-10 7 3 5-11 14-2 0 0-2 4 0 7 0 0 3 2 2 8 0 0 2 9-1 11 0 0-6-1-1 8 0 0-3 5 4 6-1 5 4 6 2 9 0 1 3 8-4 5 0 0-2 1-2 4 0 0 6 1 6 3v10s3 7-6 8c0 0-7 3-4 10-1 2 8 2 8 5 0 7-9 1-7 5 0 0 4 1 2 4 0 0-3 4-9 5 0 0 10 1 2 4 0 0-7 3-9 0 0 0-8-5-11 2-4 3-8-4-10 3 0 0-6-5-11 5 0 0-9-1-10 2-3-12 2-21 2-21-9 12-7 17-7 17 4 17-2 14-2 14-3 2-9-3-9-3l-12 3 4-13c-4 9-10 14-10 14-6 1-13-4-13-4z" class="st0"/>
  <g id="svg_x5F_region_x5F_22_1_">
    <path class="disabled" id="svg_x5F_region_x5F_22" d="M670 594c0 3 2 5 2 5 2-3 6 3 6 3 0 6 4 4 4 4 0-6 3-5 3-5 6-2 9 6 9 6l1 8c1-6 3-4 3-4 1-3 5-3 5-3 4 0 6 7 6 7-1 7 5 8 5 8 3 0 5-6 5-6 0-3-3-4-3-4l-2-1c3-6 9 0 9 0 0 7-2 8-2 8-4 6-3 10-3 10 3 1 5-5 5-5 3-7 7-8 7-8l-2 11 4-3c2 2 1 9 1 9 7 0 9 5 9 5 5 0 7 6 7 6 4 3 4 7 4 7v7c-2 5 2 9 2 9 4 0 8 3 8 3 7 2 13 7 13 7 0-3 4-4 4-4-7 1-12-8-12-8l-15-21c-8-11-11-21-11-21-7 6-4-8-4-8-4-2-2-9-2-9-6 0-9-7-9-7 0-3 6-2 6-2l2-2c0 8 4 12 4 12 0 9 8 25 8 25l12 18 14 18c4 6 18-1 18-1 4-2 9-14 9-14 6 13 14 6 14 6 2-8 11-7 11-7 9-2 16 1 16 1 6 0 7 6 7 6-1 6-10 11-10 11-2 3-1 12-1 12 8 8-3 9-3 9-6-1-6 4-6 4-4 2-13-2-13-2-2 5-6 4-6 4-5 5-9-2-9-2-2-4-6-5-6-5-4-6-14-1-14-1-4 5-4 8-4 8-3 6-9 9-9 9-8 3-7 13-7 13-3 6-9-3-9-3-6 5-11 3-11 3-6 0-9 7-9 7-5-3-14 10-14 10-4 4 0 13-9 12-4 7-9 14-15 16-10 3-19 0-19 0l-6-6c0-5-8-3-8-3-5-2-7-9-7-9 1-3 5-1 10-7 0-5-6-9 3-20 3-10-3-22-3-22-4-8-12-10-12-10-9 9-12 2-12 2-1-3-9-10-9-10-10-9-15-5-15-5-4-2-8 6-13 3-12-7 0-15 0-15 1-4 11-8 11-8 3-7 13-12 13-12 4-6 11-10 11-10 9 0 14-6 14-6l9-4c10 3 9-2 9-2l2-6c-11 7-6-9-6-9l-2-5-2-4c3-2 2-6 2-6 4-1 7 3 7 3z" class="st0"/>
  </g>
  <path id="svg_x5F_region_x5F_21" d="M692 468s2-3 7-2c0 0 6-2 9-5 0 0 5-5 13-1 0 0 0 2 8 2 0 0 4 1 3-8v-7c5-7-4-4-2-14 0 0-6-4-6-6 0-5 9-5 5-7 0 0-2-4-6-4 0 0 3-3 2-5 0 0-1-5 8-3 0 0 2-6 8-5h16s5 4 10 0c0 0 5-5 9 0 0 0 3 3 9 2 0 0 5-5 5 2 0 0 2 3 4-1 0 0-2 4 2 10 0 0 8 2 2 7 0 0 0 5 5 3 0 0 1-4 6 1 0 0 0 4 5-1 0 0 4 2 6 0 0 0 2-3 7-1 0 5 3 4 3 4a263 263 0 009 16c5-2 7 3 7 3 2 4 4-3 7 3 4 0 8 6 8 6 8-1 5 5 5 5-8 2-3 4-3 4s5 2-2 3c-4 0 1 6-5 4-10 1-5 6-5 6 2 4-3 7-3 7 9 2 9 10 9 10 10 0 8 5 8 5 1 4-2 5-2 5-8 1-1 8-1 8-8 5-14 13-14 13-16-7-29 15-29 15-8-8-15-3-15-3-15 3-19 14-19 14-1 5-8 8-8 8l-12 13c-7 2-4-6-4-6-2-6-4 0-4 0-1 5-3 9-5 11-8 0-6-5-6-5 1-14-6-12-6-12-6-1-6-5-6-5-9-2-8-8-8-8 2-3-3-5-3-5-8-1 0-7 0-7 4-1 2-6 2-6 8-5 0-8 0-8 0-5-5-4-5-4-3 0-4-5-4-5-5-2-4-9-4-9-5-4-2-14-2-14-4-13-7-4-7-4-7 4-7-6-7-6-4-5-4-13-4-13z" class="st0"/>
  <path id="svg_x5F_region_x5F_20" d="M563 545c1-3 10-2 10-2 5-10 11-6 11-6 2-7 5 1 10-2 2-7 10-2 10-2 3 3 9-1 9-1 8-2-1-3-1-3 6-1 9-5 9-5 2-3-3-4-3-4-1-4 8 2 7-5 0-3-8-3-7-5-3-7 3-10 3-10 10-1 7-8 7-8v-10c-1-2-6-3-6-3-1-3 2-4 2-4 6 3 3-5 3-5 2-3-2-4-1-9 0 0 4-1 6 3 0 0 5-1 6 1 0 0 2 6 4 3 0-5 4-1 6-3 0 0 4-8 8 0 0 0-1 5 12 3 0 0 3-5 8-1 0 0 0 2 4 1h12s0 8 4 13c0 0 0 10 7 6 0 0 3-9 7 4 0 0-3 10 2 14 0 0-1 7 4 9 0 0 1 5 4 5 0 0 5-2 5 4 0 0 8 3 0 8 0 0 2 5-2 6 0 0-8 6 0 7 0 0 4 2 3 5 0 0-2 6 7 7 0 0 0 5 7 6 0 0 7-2 6 12 0 0-2 5 5 5-5 5-12 6-12 6-5 4-4 11-4 11-5-5-8-5-8-5-3 0-5 3-5 3-3 2-9 0-9 0-4 0-5-6-12-5-3 0-4-7-7-6 1 7-4 8-4 8l-7-3-13 3-1 2s-3-3-7-2c0 0 1 4-1 7-2-1-2 5-2 5-7 9-12-3-12-3-7 1-8-9-8-9-2 12-10 6-10 6-2 6-18 4-18 4-18 7-23 2-23 2-6-2-7-8-7-8-8 0-10-4-10-4-2-3-12-5-12-5-7 2-8-3-8-3l10-2c4 2 7-5 7-5-2-7-9-7-9-7h-5c-2-3 2-4 1-7l8-1c6 0 10 4 10 4 5 4 12-2 12-2l5-2c-1-3-9-4-9-4l-11-1c-6-2-7-11-7-11z" class="st0"/>
  <path id="svg_x5F_region_x5F_19" d="M384 420c6-2 8-9 8-9 1-10 5-1 5-1 4 5 13 3 13 3 5-5 9 1 9 1 10 1 10-4 10-4-1-7 6-6 6-6 6 1 7-2 7-2 6 0 9 9 13 7h9c2 5-2 4-2 4-6 5 0 13 0 13 5 3 3 16 3 16 5-1 5 8 5 8-2 13 10 9 10 9 9 1 13-3 13 4 6 8 2 13 2 13-1 6 1 13 1 13 1 6 11 5 11 5 12-2 3 6 4 8 0 2 9 2 9 6 7 12-6 13-6 13-10 1-7 5-7 5-2 3 3 6 3 6 5 4 4 11 4 11-2 9 3 9 3 9-4 4-10 4-10 4-2 3-11 3-11 3-5-1-2 11-2 11 0 9-7 12-7 12 1 6-4 10-4 10-3 9-6 10-6 10-6-5-6-12-6-12l-6-6c0-5-5-9-10-5-6 5 0 8 0 8l7 5c6 3 7 10 7 10 6 9-1 14-1 14l-14 17v-7l-7 5c-7 0-6 7-6 7-2 3-7 1-7 1-1 3 4 4 2 9-5 5-9-2-9-2v-8l-2-5c-4 3-2 10-2 10-4 9 0 14 0 14-2 11 3 8 3 8 6 0 5 11 5 11-1 13-7 13-7 13s3-10-2-14c0 0-1-6-11-8 0 0-13-2-18 5 0 0-10 1-13 10l-6-5s-5 2-4 5c1 0 1 8-11 2-6-7-11-3-14-8 0 0-6-3-6-12 1 0-2 1-3-3 0 0 4-8 9-3 0 0 3-2 7 0 0 0 6 2 4-12 0 0-7-2 4-10 0 0 6-2 6-7 0 0 6 2 5-7 0 0-4-7 7-8 0 0 7 0 6-6 0 0-4-5 1-9 0 0 7-4 0-8 0 0-3-1-3-6 0 0 4-3 0-9 0 0-2-6 5-11 0 0 5 0 8-3 0 0 5-5 5 9-3 9 5 5 4 2 0 0 1-8 4-3 0 0 0 3 4-1 4-6 3 4 9 4 0 7 6 7 6 1 0 0 5-8 9 3 0 0 0 8 5 0 0 0 11 2 13-1 0 0-3-6-7-5 0-5-8-6-6-9 0 0 4 0 3-9 0 0 2-8 0-11 0 0 2-9-12-12-4-6-8-4-9-9l1-11s-9-2-5-4c4 0 1-10 3-12 0 0 4-11-4-9 0 4-8 9-8-1 0 0-2-10-11-9 0 0-3-4-2-13 0 0 5-3 4-10 0 0-1-5 1-6 0 0 5-2 0-7-2-4 5 0-1-11 0 0-1-9-8-5 0 0-1 9-9-3z" class="st0"/>
  <path id="svg_x5F_region_x5F_18" d="M622 421c-9-10-7 5-14 2 0 0-8-4-8 10 0 0 3 12-14 9 0 0-9-7-12 0 0 0-6 10-7 2 0 0-3-7-8-2 0 0-8 3-4-5 0 0 0-7-5-9 0 0-9-6-4-8 0 0 7-6-4-7 0 0-2-4-9 4 0 0 2-7-8-5 0 0-8 2-9-5 0 0-4-10-15-2-4 7-3-2-15 2-3-1-5 4-7 0 0 0-10-4-15 2 0 0-5 2-9 0-5 2-7-7-13-7 0 0-2 3-7 2-6-7-1-15-1-15 3-8 7-6 7-6 3 8 8-1 8-1 8-10 11-3 13-5 7-10 14-8 14-8 5 2 3-3 3-3-2-2 2-7 2-7 1-10 6-8 6-8 10-2 19 1 19 1 2 4 6 0 6 0 6-4 9 0 9 0 1 4 9-2 9-2 0-5 4-10 4-10-3-9 6-6 6-6 5-3 12 1 12 1 2 9 6 1 6 1 4-6 6-1 6-1 6 3 5-5 5-5-1-5 4-6 4-6l6-6c2 4 5 4 5 4 5 4 6 9 6 9 5 3 8-2 8-2 4-2 4 4 8-1 4-4 0-11 0-11-2-8-7-6-2-16 4 1 6 5 6 5 11 0 14 6 14 6l5 7c8 0 7 5 7 5 2 11 6 5 8 8 4 2 8 0 8 0 15-3 17 5 17 5l-5 8s-2-5-10-1c0 0-12 0 0 8 0 0 8 0 10 3 0 0-1 4-7 8l-8 3s-8 4-3 11l1 11s5 9-6 15c0 0-7 0-8 8 0 0-9 2-11 10z" class="st0"/>
  <path id="svg_x5F_region_x5F_17" d="M843 398c4 9-6 5-6 5-7-8-10-2-10-2-4 6 0 9 0 9 5 5 0 6 0 6-7 2 0 9 0 9-5-3-6 1-6 1-2 2-6-1-6-1-6 6-6 2-6 2-5-5-6-2-6-2-5 3-5-2-5-2 6-5-1-7-1-7-4-6-3-10-3-10-2 4-4 1-4 1 0-7-5-2-5-2-5 1-8-3-8-3-5-5-10 1-10 1-5 4-9 0-9 0h-15-2c-6-1-8 4-8 4-8-1-8 4-8 4 1 2-2 5-2 5 4 0 6 4 6 4 4 2-5 1-5 6 0 3 6 7 6 7-2 10 7 7 2 13v8c2 9-3 7-3 7-7 1-8-1-8-1-8-4-13 0-13 0-2 4-8 5-8 5-5 0-7 3-7 3h-12c-4 1-5-1-5-1-5-4-7 1-7 1-14 2-12-3-12-3-5-8-9 0-9 0-1 2-5-2-6 3-1 3-4-3-4-3-1-2-6-1-6-1-2-4-6-3-6-3-7-1-5-6-5-6-4-9 2-8 2-8l1-1 6 1c6 0 5 5 9 5s0-11 3-13c4-1 2-11 0-19s-9-9-9-9c1-8 8-8 8-8 11-6 6-16 6-16l-1-10c-5-7 3-11 3-11l8-4c3-1 5-3 5-5l2-2c-2-4-10-3-10-3-12-8 0-8 0-8 8-4 10 1 10 1l5-9 7 4 4 2c8 7 9 2 9 2s4-4 2-11c0 0-5-1 2-9 0 0 1-11 7-10 6-7 12-6 14-8 3-3 9 0 14-2 1 3 11-2 15 6 9 8 13 13 19 11h14c12-8 12 9 12 9 11 5 8 10 8 10 2 5 5 6 5 6 6 2 5 8 5 8 1 11 6 0 6 0 3-10 9-5 9-5 2 5 9 0 9 0 7 2 3 4 3 4-3 3 2 5 2 1 3-3 6-1 6-1 1 2-5 5-3 11-2 13 2 13 2 13 4 1 5 7 5 7 2 5-1 6-1 6-4 0-1 8-1 8z" class="st0"/>
  <path id="svg_x5F_region_x5F_28" d="M643 439c-4 1-1 13-4 13s-2-5-9-5l-6-1v-1c2-3 0-9 0-9 1-6-2-8-2-8-2-3 0-8 0-8 3-8 11-9 11-9s8 0 10 9c2 8 3 17 0 19z" class="st0"/>
  <path id="svg_x5F_region_x5F_16" d="M761 187c0 8-9 4-11 7-2-4-12 0-13 8 0 0-6-2-9 5 0 0-5-1-8 4 1 7-1 12-1 12-6 8 1 10 1 10 2 4 6-1 11 6 9-1 6 7 6 7 2 12 10 9 10 9 4-4 4 4 4 4 4 14-1 13-1 13-7-1-4 7-4 7 5 2-1 9-1 9-3 5-10 3-10 3-14-5-8 13-8 13 1 3 12-2 16 6 9 8 12 13 18 12h15c12-9 12 8 12 8 10 5 8 10 8 10 1 5 5 6 5 6 6 3 5 8 5 8 0 11 6 0 6 0 3-10 9-5 9-5 1 5 8 0 8 0 2-10-2-8-1-12 0 0-1-7 6-3 2 1 3-3 4-4 0 0 3 3 7 3 0 0-2-3 3-6 0 0 3-3 5 1 0 0-2-6 5-9 0 0 5-2 2-8 0 0 0-4 9-11 0 0 7-3 7-8 0-4-7 1-5-3 0 0 2-7 8-2 0 0 7 1 10-1 0 0 6-9 1-10 0 0-2-4 0-17 0 0 5-3 2-8-3-6 4-6 2-10 0 0-4-3-2-7 2-2 0-6 3-9 0 0-3-4-1-9-2 0-3-3-3-3-5-10-14-9-14-9-4-9-8-12-8-12 1-13-5-11-5-11-5-2-5-7-5-7 0-4-7-2-7-2-11 13-16 10-16 10-8-2-14 6-14 6-6 2-5 6-5 6-5 6-8 0-8 0-5-11-9-4-9-4-5 4-8-4-8-4-4-11-12-8-12-8-11-2-14 5-14 5-1 4-3 4-5 4z" class="st0"/>
  <path id="svg_x5F_region_x5F_15" d="M633 2l-4 10c-5 12-1 14-1 14 6 1 6 6 6 6 1 2-5-1-4 5-2 2-1 5-1 5 1 5-6 4-6 4-5 1-7 8-7 8-7 6 1 16 1 16 3 0 2 10 2 10 3 5-3 3-2 12 2 9-4 8-4 8 3 9 1 14 1 14 0 3-6 0-4 8-3 5 3 6 3 6 3-1 1 5 4 4 3 0 2-3 6-3-5 7 0 10 0 10-1 6-5 7-4 11-1 4 4 8 1 13 0 10-4 16-4 16 7 4 8 0 8 0 3-4 10 2 10 2 2 2 13 0 16 2 9 2 9-2 9-2 3-7 7 0 7 0 5 5 7 0 7 0 1-5 8-5 8-5 0 12 5 14 5 14 4 5 4 12 4 12 3-2 3 3 3 3 6 3 2 5 2 5-3 6 4 5 4 5 6 2 9-3 9-3 6-4 12-1 12-1 3-5 8-4 8-4 2-7 9-5 9-5 1-7 11-12 13-8 2-3 11 1 11-7-2 1-4-1-4-1-1-11-5-9-5-9-7-1-5-12-5-12-6-5 2-4 1-11 0-6-4-7-3-9-5-4-5-11-5-11-4-4-1-8-1-8 4-4-4-3-4-3-5 3-6-7-6-7 0-13-12-7-12-7-7 6-15 1-15 1-3-5-9-3-9-3-4-5-7 0-7 0-12 3-5-4-5-4 5-9-2-8-2-8-3 1-1-11-1-11 0-7-5-12-5-12-6-6 6-9 6-9 9 0 8-6 8-6 1-6-9-11-9-11-9-6-10-14-10-14-4-7 6-10-4-15-5-1-8-11-8-11-4-10-9-4-9-4-4 0-8 7-8 7-4 1 1-9-6-7z" class="st0"/>
  <path id="svg_x5F_region_x5F_14" d="M750 272c-7-1-4 7-4 7 5 2-1 9-1 9-3 5-10 3-10 3-14-5-8 13-8 13-5 3-10-1-13 2-2 3-8 1-14 8-6 0-7 10-7 10-7 8-2 9-2 9 2 7-2 11-2 11s-1 5-10-2l-10-5s-3-8-17-5c0 0-5 2-8 0-3-3-6 3-8-8 0 0 0-5-7-5l-5-7s-3-6-14-6c0 0-2-4-6-5 0 0 1-9-4-16 0 0-5-5-1-11 0 0 7-1 0-8 0 0 1-5-7-7 0 0 0-6-7-9 0 0-10-7-4-8 0 0 2-7-1-10 0 0 0-6-4-6 0 0-5 1-5-10 0 0-7-1-7-9 0 0 3-2 1-9 0 0 6 3 9-4 0 0 6-5 11 0 0 0 5 5 16 0 0 0 5 2 9-6 0 0 6-5 6-10 7 4 8 1 8 1 3-4 10 2 10 2 2 2 13-1 16 2l4 16c1 3 3 5 6 4 4-1 10-1 15 5 7 7 11-5 15-4 2 1 2-1 1-3 2 1 2 4 2 4 6 2 2 5 2 5-3 5 4 5 4 5 6 1 9-3 9-3 6-4 12-1 12-1 1 8-2 12-2 12-5 8 2 10 2 10 2 4 6-1 10 6 10-1 7 7 7 7 2 12 9 9 9 9 5-4 5 4 5 4 4 14-1 13-1 13z" class="st0"/>
  <path id="svg_x5F_region_x5F_27_1_" d="M691 204c-4-1-9 11-16 4-5-6-11-6-15-5-2 1-5-1-6-4l-4-16c9 1 9-3 9-3 3-6 7 1 7 1 5 5 7 0 7 0 1-6 9-5 9-5-1 12 4 14 4 14l2 4 1 2 1 5h1v3z" class="st0"/>
  <path id="svg_x5F_region_x5F_13" d="M606 317c-2-8-7-6-2-16 0 0 1-9-4-15 0 0-5-6-1-12 0 0 7-1 0-7 0 0 1-6-8-8 0 0 0-6-7-9 0 0-9-7-3-8 0 0 2-7-1-10 0 0-1-5-5-5 0 0-4 1-4-11 0 0-7-1-7-9 0 0-9 3-8 10 1 2-5 2-5 6 0 0 2 7-3 9 0 0-1 14-8 14 0 0-8 2-11-2 0 0-5-6-9 0 0 0-7-3-7 11 0 0 1 9-3 15v9s-8 4-9 9c0 0-1 7-12 7 0 0-3-4-14 1 0 0-5-6-5 3 0 0 1 7-1 5v3l1 1v2l1 2v1l2 11 1 3c1 6 4 11 6 16 2 2 1 4 2 7v3c2-3 5-2 5-2 10-2 18 1 18 1 2 4 7 0 7 0 6-5 8 0 8 0 1 4 10-2 10-2-1-5 4-10 4-10-3-9 5-6 5-6 5-3 12 1 12 1 2 9 6 1 6 1 4-6 7-1 7-1 5 3 4-5 4-5 0-5 4-6 4-6l6-7c2 5 5 5 5 5 6 3 7 9 7 9 4 2 8-2 8-2 3-2 3 4 8-1 4-4 0-11 0-11z" class="st0"/>
  <path id="svg_x5F_region_x5F_12" d="M435 404s-8-1-6 6c0 0 0 5-10 4 0 0-4-6-9-1 0 0-9 2-14-3 0 0-3-9-4 1 0 0-3 7-8 9-5-2-2-15-11-15 0 0-9-4-13 3 0 0 1 6-3 1 0 0 2-3 0-5 0 0-3-1-6 1 0 0 3-2 3-5 0 0 2-7-3-5 0 0-4-1-5 1 0 0-3-6-8-1 0 0 1-9-4-8-8 0-8-10-11-10 0 0-2-6-10-2-3-4-1 3-12 2 6-8 2-12 2-12 1-11-5-8-5-8s4-8 1-30c0-8 7-12 6-15s10-8 13-3c0 0 13 8 10-9 0 0 1-11-3-18 0 0-7-6-1-13 0 0 3-3 2-7 0 0-5-5 0-7 0 0 6-2 3-5 8-3 12 3 17 0 10-3 12 3 13 0 3-5 9-2 9-2s5 3 10 0c0-6 2-5 5-5 10-4 4 7 8 8 0 0 3 6 1 9 0 0-4 6 1 10 0 0 12 2 14-1 2-6 7-1 11-6 5 0 1 9 3 11 0 0 5 8 1 16 0 0-4 1-1 7 0 0 5 0 9 9 0 0 3 7-2 14-2-1-7 6 1 6 0 0-3 8 2 9 0 0-2 6 1 6 4-1-1 5 4 7 6 4 1 9 6 10 6 0 1 8 3 8 0 0 5 2 3 9 0 0-7 4 1 7 0 0-5 8-9 1 0 0-3-3-6 6 0 0-4 8 1 15z" class="st0"/>
  <path id="svg_x5F_region_x5F_11" d="M298 357s6-3 5 8c0 0 4 4-2 12 0 0-2-7-9-2 0 1-3 8-9 3-5-5-10 4-12 0 0 0-7-5-7 3 0 0-2 5-4 3 0 0-1-6-6 5 0 0 1-2-3 1 0 0-7 0-14 3l-4 11c-7 10-7 7-19 8l-26 3s-14-5-20 8c0 0-3 8-16 9 6-11 2-16 2-16-3-11 4-20 4-20 7-2 9-10 9-10 2 1 4-3 4-3 9-14 17-12 17-12 9 2 8-6 8-6v-9c-4-8 2-10 2-10s4-1 4 2c0 0 2 5 5 1 0 0 4-5 6 4 0 0-3 9 4 1 0 0 6-7 8 3 0 0 2 6 6 5 0 0 5-1 8 1h8s2 11 7 6c0 0 4-3 0-8 0 0 5-3 11-3 0 0 1 8 6 4 0 0 5-4 7 0 0 0 7 1 13-4 0 0 4 3 7-1z" class="st0"/>
  <path id="svg_x5F_region_x5F_10" d="M297 174c0 5 6 4 2 10 0 1-4 4 2 8 5 5 5 9 7 9 0 0 5 8 8 3 0 0 2 2 2 12-3 6 4 8-2 10 0 1-5 0-3 10 0 0 0 5 6 11 0 0 7-1 9 3 4 3-2 5-2 5-5 2 0 7 0 7 1 4-2 7-2 7-6 7 1 13 1 13 4 8 3 18 3 18 3 17-10 9-10 9-3-5-14 0-13 3s-6 7-6 15c3 22-1 30-1 30-3 3-7 1-7 1-6 5-13 4-13 4-2-4-7 0-7 0-5 4-6-3-6-3-6 0-11 2-11 2 4 5 0 8 0 8-5 5-7-6-7-6h-8c1-6-3-9-3-9-4-5-2-20-2-20-2-9 0-22 0-22 2-4-2-12 1-19 3-9-1-18-1-18-2-8 1-10 1-10s3-4 3-13c-2-1 0-5 0-5 3-4 0-6 0-6-5-13 2-18 2-18 0-12 4-7 3-17 3 0 4-2 4-2 3-9 6-4 6-4 3 1 8-6 8-6 9-6 9-11 9-11 5-8 10-7 10-7 5 0 7-4 7-4 4-4 6 3 10 2z" class="st0"/>
  <path d="M125 371h-1v-2 2h1z" class="st0"/>
  <path d="M198 346s-6 2-2 10v9s1 8-8 6c0 0-8-2-17 12 0 0-2 4-3 3 0 0-3 8-10 10 0 0-7 9-4 20 0 0 4 5-2 16 0 0-5-15-12-14 0 0 1-8-5-11 6-11-1-15-1-15-4-2 1-7-2-10-2-7-5-9-7-10h2l4-1 5-3c1-2 0-12-10-9h-1c-2 1-3 2-3 4v4l1 1c-3-3-5 1-5 1-12 2-7-6-7-6 2-15-1-11-1-11-6-1-7 3-7 3-7 1-3-5-3-5 0-4-4-4-4-4-4-1-1-9-9-9 0-4-6-9-6-9 3-8 2-14 2-14-1-8 3-10 3-10 5-2 6-5 6-5-2-9 8-5 8-5 9 2 11-1 11-1 4-2 14-1 14-1 11 0 11-4 11-4 0-2-6-2-6-2v-8c6-1 5-10 5-10-1-9 5-8 5-8 3-3 8 0 8 0 1 4 5 3 5 3s5 10 5 22c0 0 3 5 1 7 0 0-3 3-2 8 0 0 8-1 8 2 0 0 1 4-5 5 8 1 3 8 6 8 0 0 5-4 5 4 0 0-2 11 3 4 0 0 4-8 4 5 0 0-4 10 7 0 0 0 6-3 7 4 0 0 8 3 6 14z" class="st0"/>
  <path id="svg_x5F_region_x5F_8" d="M81 329l-8-1s-1-5-6-5c0 0-6 1-7-6 0 0 0-8-6-5 0 0-5 0-5-4 0 0-3-2-2-15l-9-3c-5-6-7-5-8-4l-1 4c-8 4-8 11-8 11-5 4-5 12-5 12s-3 11-13 16c-3 7-3 17-3 17 7-2 6 7 6 7 5 0 4 6 4 6-1 6 4 5 4 5 7-2 2 6 8 8-1 12 7 8 7 8 7-4 10 7 7 8-2 6 0 8 0 8 5 0 4-9 13-5 5-15 12-4 12-4 5 10 12 8 12 8 4-3 11 3 12 3 5-1 8 7 15 5 5-1 9 7 19 4 8-2 12-2 15 0 6-11 0-15 0-15-4-2 1-8-2-10-3-10-8-11-8-11-3-9-6-2-6-2-12 2-7-7-7-7 2-15-1-10-1-10-5-1-7 3-7 3-7 1-3-5-3-5 0-4-4-4-4-4-4-1-1-9-9-9 0-4-6-8-6-8z" class="st0"/>
  <path id="svg_x5F_region_x5F_7" d="M199 346s3-1 3 2c0 0 2 5 5 1 0 0 4-5 6 4 0 0-3 9 4 1 0 0 6-7 8 3 0 0 2 6 7 5 0 0 4-1 7 1 0-6-3-9-3-9-4-5-3-20-3-20v-22c3-4-1-12 2-19 3-9-1-18-1-18-2-8 1-10 1-10s3-4 3-13c-2-1 0-5 0-5 3-5 0-6 0-6-5-13 2-18 2-18 0-12 4-8 3-17-3-1 0-13-5-7-4-4-9-3-9-3-4-1-7 4-7 4-4 4-12 4-12 4-4 3-10-7-11 2 1 4-6 11-6 11 5 6 0 11 0 11-1 4-7 4-7 4-14 0-11 6-11 6 3 5-3 5-3 5-5 11-7 10-7 10-3 3-8 0-10 4l-2 6s5 10 5 22c0 0 3 5 1 7 0 0-2 3-2 8 0 0 8-1 8 2 0 0 2 4-5 5 8 1 4 8 7 8 0 0 5-4 4 4 0 0-1 11 4 4 0 0 3-8 3 5 0 0-4 10 7 0 0 0 6-3 7 4 0 0 8 3 7 14z" class="st0"/>
  <path id="svg_x5F_region_x5F_6" d="M47 293s2-6-3-10c0 0-7-3-2-11 0 0 3-4 1-16 0 0-3 0-2-9 0 0-7-1 16-24 0 0 24-32 47-47 0 0-1-8 12-7 0 0 9 2 8-5 0 0-2-6 6-5v-7c4 5 8 5 8 5 5-1 7 2 7 2 5 1 5 4 5 4 1 4-6 5-3 7 0 5 3 3 3 3 6 1 7 5 7 5 2 7 7 5 7 5 5-3 10 0 10 0 5 1 4 5 4 5-1 4 7 2 7 2 2 3-1 6-1 6-2 9 1 13 1 13l7 8c5 7 0 11 0 11 0 4-6 4-6 4-14 0-11 7-11 7 3 4-3 4-3 4-5 11-8 10-8 10-2 3-7 0-9 4-2 1-2 6-2 6s-4 1-5-3c0 0-6-3-9 1 0 0-6-2-4 7 0 0 1 9-5 10v8c0 1 6 0 6 2 0 0 0 4-11 4 0 0-10-1-14 2 0 0-2 2-12 0 0 0-9-3-7 5 0 0-2 4-6 5 0 0-4 2-3 10 0 0 2 5-1 14h-9s-1-4-6-4c0 0-6 0-7-6 0 0 0-9-6-5 0 0-5-1-5-5 0 0-3-2-2-15z" class="st0"/>
  <path id="svg_x5F_region_x5F_5" d="M419 264c1-4-1-7-1-7-2-4-1-7-1-7 6-1 9-5 9-5 10-7 8-10 8-10-5-4-3-13-3-13 5-4 1-8 1-8 1-11-5-13-5-13 0-9-4-9-4-9-7-3-2-4-1-10-2-11 1-14 1-14 6-9 0-12 0-12 1-12-5-16-5-16-2-2 3-3 4-11-4-10-11-6-11-6v-11c11-3 5-14 5-14 7-2 10-8 14-8 0 0 2-9 8 0 0 0 1 5 7 0 0 0 4-3 10-2 0 0 8-1 11 4 0 0 6 5 4 9 0 0 2 6 10 8v16l-1 11h1s6-1 5 5c0 0-1 7 4 7 0 0 5 2 2 7 0 0-3 7 10 5 0 0 7-3 11 5 0 0 2 3 2 7 0 0-1 6 4 8 0 0 7 7 22 1 2-4 6-2 6-4 0 0 2-10 7-1 0 0 2 5 8 4 0 0-8 4-1 12 6-2 2 4 5 5 1 7-1 11-1 11s-9 2-8 8c1 3-5 3-5 7 0 0 2 7-2 9 0 0-2 14-9 13 0 0-8 2-11-1 0 0-5-6-9 0 0 0-7-3-7 11 0 0 1 8-3 14v9s-8 5-9 10c0 0-1 7-12 8 0 0-3-5-14 0 0 0-5-7-5 3 0 0 1 7-2 5 0 0-3-3-8-3 0 0-4-8-7 0 0 0-8-1-10 4 0 0-3 6-7 4-4 1-1-6-6-3-4-10-9-9-9-9-3-6 1-8 1-8 4-7-1-15-1-15-2-2 3-10-2-10z" class="st0"/>
  <path id="svg_x5F_region_x5F_4" d="M328 84s7 4 7-8c0 0 1-9 6-2 0 0 5 7 13 0 0 0-1-4 5-7 2 2-1 8 3 10 0 0 0 5 5 2 0 0 2-5 8-1 0 0 4-1 3 5 0 0-2 6 7 10 0 0 0-15 12-15 0 0 6-9 9-4 0 0 5 5 5 12 0 0 1 10 5 12 0 0 6 11-5 14l1 11s6-3 10 6c-1 8-6 9-4 11 0 0 6 4 5 16 0 0 6 3 1 12 0 0-4 3-2 14-1 6-6 7 1 10 0 0 4 0 4 9 0 0 6 2 5 13 0 0 4 4-1 8 0 0-2 9 3 13 0 0 2 3-8 10 0 0-3 4-8 5 0 0-2 3 0 7 0 0 3 3 1 6-4 5-9 0-12 6-2 3-13 1-13 1-6-4-2-10-2-10 2-3-1-9-1-9-3-1 2-12-8-8-3 0-5-1-5 5-5 3-10 0-10 0s-6-3-8 2c-2 3-4-3-14 0-5 3-9-3-17 0-3-4-10-3-10-3-6-7-6-12-6-12-1-9 4-9 4-9 5-3-2-4 1-10l-1-12c-4 5-9-3-9-3-2 0-2-4-7-10-6-3-2-7-2-7 4-6-2-5-2-10 4 0 1-5 1-5-4-6 1-8 1-8 3-6 0-9 0-9-2-4 2-5 0-11 1-7-3-13 2-14 4 0 6-6 6-6l4-9c4 0 3-10 3-10 5-4 1-6 1-6-2-5 2-8 2-8 0 4 0 5 4 7-1-6 2-10 2-10 3-4 5-1 5-1z" class="st0"/>
  <path id="svg_x5F_region_x5F_3" d="M215 34c0 5 2 7 2 7 4-1 2 8-2 7l-3 8c-2 7 2 10 2 10 3 3 0 6 0 6 0 12-2 15-2 15 1 9 5 2 5 2 8-4 9 5 9 5 2 8 5 9 5 9 11 10 4 10 4 10-4 1-4 6-4 6 9 0 7 6 7 6 0 6-8 3-8 5 7 5 1 8 1 8 1 4-5 6-5 6-3 2-1 7-1 7 0 13-7 7-7 7-4-1-3-6-7-5-3-1-3 3-9 2-7-1-7 2-7 2-3 3-1 10-6 8-8-2-6 10-6 10 5 6 0 8 0 8l-5 5c-1 4 7 2 7 2 2 3-1 6-1 6-2 9 1 13 1 13l7 8s7-7 6-11c1-9 7 1 12-2 0 0 8 0 11-4 0 0 3-5 7-4 0 0 5-1 10 3 4-5 1 7 4 8 3 0 4-3 4-3 4-9 6-4 6-4 4 1 9-6 9-6 8-6 9-11 9-11 5-8 10-7 10-7 5 0 7-3 7-3 3-5 5 2 9 1s1-5 1-5c-3-6 1-8 1-8 3-6 1-9 1-9-2-4 2-5 0-11 1-7-4-13 1-13 4-1 6-7 6-7l4-9c5 0 3-10 3-10 6-4 2-5 2-5-2-6 1-8 1-8 0 3 0 4 5 6-2-6 1-10 1-10 3-4 6-1 6-1-2-4 2-7 2-7 1-8-14-9-14-5-13 2-11-3-11-3 4-4-2-4-2-4-3-2-1-5-1-5 1-4-5-4-5-4h-9c-6-1-8-8-20-7-6 1-5-2-5-2-1-5-9-4-9-4-7 2-7-2-7-2-1-5-9-3-9-3-8 0-8-6-11-3l-12-1z" class="st0"/>
  <path id="svg_x5F_region_x5F_2" d="M130 152c0-5-2-11-5-16 0 0-5-4 1-6h8c0-5-10-5-12-24-2-3 1-11-4-12-6-1-3-10-6-10 0 0-4-2 2-11l-3-12s0-10 6-9c0 0 9-2 12 3 0 0-3 8 8-1 0 0 7-4 11-10 0 0 1-5 4-9 0 0 2-6 18-3 0 0 16 3 23-1 12-4 9 1 13 2l9 1c0 6 2 7 2 7 4-1 2 8-1 7-3 3-4 8-4 8-2 7 2 10 2 10 3 3 0 6 0 6 1 12-2 15-2 15 1 9 5 2 5 2 8-4 9 5 9 5 2 8 6 9 6 9 10 10 3 10 3 10-4 1-4 6-4 6 9 0 7 6 7 6 0 6-8 3-8 5 7 5 2 8 2 8 0 4-5 6-5 6-4 2-2 7-2 7 0 13-7 7-7 7-3-1-3-6-6-5-4-1-4 3-9 2-7-1-8 2-8 2-3 3-1 10-6 8-8-2-6 10-6 10 5 6 0 8 0 8-1 3-4 5-4 5s0-4-5-5c0 0-5-3-10-1 0 0-5 3-7-5 0 0-1-3-7-4 0 0-3 2-3-3-3-2 4-3 3-7 0 0 0-3-5-4 0 0-2-3-7-2 1 0-4 1-8-5z" class="st0"/>
  <path id="svg_x5F_region_x5F_1" d="M565 198c-3-1 1-8-5-6-7-7 1-12 1-12-6 1-7-4-7-4-6-8-8 1-8 1 0 3-4 0-6 4-15 6-22 0-22 0-5-3-4-10-4-10l-2-6c-4-8-11-5-11-5-13 2-10-4-10-4 3-5-2-7-2-7-5 0-4-8-4-8 1-6-5-5-5-5h0v-27h0s0-5 4-4c4-9-3-9-1-19 0 0-6-4 1-17 4-3 2-12 7-18 5-3 4-7 7-8 0 0 4-3 4-8 0 0-2-7 12-3 0 0 6 8 7-1 0 0 2-7 19-2 0 0 13-2 14 3 0 0-3 5 7 2 0 0 4 2 13-7 0-7 3-7 3-14 0 0-5-9 10-4 0 0 9 5 13 4 7 0 6 1 18-9 0 0 0-4 15-2l-4 10c-5 12-1 14-1 14 6 2 6 6 6 6 1 2-5-1-4 6-2 1-1 4-1 4 1 5-5 4-5 4-6 1-7 8-7 8-8 6 1 16 1 16 2 0 1 10 1 10 3 6-3 3-2 13 2 8-4 7-4 7 3 9 2 14 2 14-1 4-7 1-5 8-2 5 3 6 3 6 3-1 1 5 4 4 3 0 2-3 6-2-5 6 0 10 0 10-1 5-5 6-4 10-1 4 4 8 1 13 0 10-4 16-4 16 0 5-6 10-6 10-4 7-9 5-9 5-11 5-16 1-16 1-4-6-10-1-10-1-4 7-10 4-10 4h0z" class="st0"/>
  <path id="svg_x5F_region_x5F_26" d="M483 353l-1-3c0-8-6-15-8-23-1-7-2-15-5-22l-1-1s-3-3-8-3c0 0-4-8-7 0 0 0-8 0-10 5 0 0-3 5-7 4-4 1 0-6-6-4 0 0 3 7-2 14-2-1-7 6 1 6 0 0-3 8 2 9 0 0-2 6 1 6 4-1-1 6 4 7 6 4 1 9 6 11 6-1 1 7 3 8 0 0 5 1 3 9 0 0-6 3 1 6 8-10 11-3 13-5 7-10 14-8 14-8 5 2 3-3 3-3-2-2 2-7 2-7l2-6z" class="st0"/>
  <path id="svg_x5F_region_x5F_27" d="M136 368l-5 4-4 1-2-1-1-3-1-1-1-1v-4c0-2 1-3 3-4h1c11-3 12 7 10 9z" class="st0"/>
</svg>